<svg width="94" height="93" viewBox="0 0 94 93" fill="none" xmlns="http://www.w3.org/2000/svg">
<path fill-rule="evenodd" clip-rule="evenodd" d="M2.5072 34.4307H91.8791C86.5855 14.7294 68.6119 0.21705 47.2432 0.194457H47.1431C25.7737 0.21705 7.80003 14.7294 2.5072 34.4307" fill="#79BFEB"/>
<path fill-rule="evenodd" clip-rule="evenodd" d="M1.43781 39.5443H92.9477C92.6871 37.8046 92.3279 36.1026 91.879 34.4307H2.50721C2.05836 36.1026 1.69838 37.8046 1.43781 39.5443" fill="white"/>
<path fill-rule="evenodd" clip-rule="evenodd" d="M91.8791 58.5H2.5072C7.8053 78.2163 25.8023 92.7362 47.1928 92.7362C68.5832 92.7362 86.581 78.2163 91.8791 58.5Z" fill="#79BFEB"/>
<path fill-rule="evenodd" clip-rule="evenodd" d="M2.50721 58.5H91.8791C92.328 56.8357 92.6864 55.1261 92.9478 53.3865H1.43855C1.69988 55.1261 2.05836 56.8357 2.50721 58.5Z" fill="white"/>
<path fill-rule="evenodd" clip-rule="evenodd" d="M1.67803 54.8324H92.7075C93.2031 52.1137 93.4637 49.3196 93.4637 46.4654C93.4637 43.6036 93.2023 40.802 92.7045 38.0833H1.68105C1.17583 40.8487 0.922013 43.6542 0.922685 46.4654C0.922685 49.3196 1.18249 52.1137 1.67803 54.8324" fill="white"/>
</svg>
