<svg width="94" height="94" viewBox="0 0 94 94" fill="none" xmlns="http://www.w3.org/2000/svg">
<path fill-rule="evenodd" clip-rule="evenodd" d="M47.2184 0.957993C72.7713 0.957993 93.4894 21.676 93.4894 47.2289C93.4894 72.7818 72.7713 93.4998 47.2184 93.4998C21.6654 93.4998 0.947388 72.7818 0.947388 47.2289C0.947388 21.676 21.6654 0.957993 47.2184 0.957993Z" fill="#2B3578"/>
<path fill-rule="evenodd" clip-rule="evenodd" d="M30.1981 4.18889V10.8539L49.5906 1.14631C48.4609 1.05594 47.3237 0.995708 46.1789 0.973114C40.5457 1.09361 35.1611 2.22328 30.1981 4.18889ZM18.9165 10.6204L19.3835 10.8539V10.2665C19.2329 10.3794 19.0747 10.4999 18.9165 10.6204Z" fill="#2B3578"/>
<path fill-rule="evenodd" clip-rule="evenodd" d="M55.3218 1.907L35.5979 11.7651H30.7555L51.6014 1.34967C50.9311 1.26683 50.2609 1.19904 49.5906 1.14632L30.1981 10.8539V4.1889C29.4676 4.48261 28.7446 4.79137 28.0291 5.1152V13.9341H57.2422V11.7651H42.8428L57.2422 4.57295V2.29863C56.6096 2.15554 55.9694 2.0275 55.3218 1.907ZM19.3836 10.2665V10.8539L18.9165 10.6205C17.5835 11.6597 16.3034 12.7593 15.0909 13.9341H21.5524V8.72261C20.8144 9.21966 20.0915 9.73177 19.3836 10.2665ZM36.11 20.4183H28.0291V33.6052H30.1981V23.5061L50.3889 33.6052H57.2422V33.4019L35.5979 22.5798H40.4329L57.2422 30.9844V29.7794L42.8428 22.5798H57.2422V20.4183H36.11ZM18.3066 20.4183H9.50278C8.08694 22.399 6.82922 24.5002 5.74475 26.6993L13.9838 22.5798H18.8187L4.33643 29.8171C4.13309 30.3141 3.93734 30.8187 3.75659 31.3233L19.3836 23.5061V33.6052H21.5524V20.4183H18.3066Z" fill="white"/>
<path fill-rule="evenodd" clip-rule="evenodd" d="M13.9839 22.5798L5.74487 26.6993C5.24029 27.716 4.76582 28.7627 4.33655 29.8171L18.8188 22.5798H13.9839ZM51.6014 1.34967L30.7555 11.7651H35.5979L55.3218 1.907C54.0942 1.68107 52.8516 1.49276 51.6014 1.34967ZM35.5979 22.5798L57.2422 33.4019V30.9844L40.4329 22.5798H35.5979Z" fill="#C41F38"/>
<path fill-rule="evenodd" clip-rule="evenodd" d="M21.5524 8.72263V13.9341H15.0909C13.032 15.9184 11.1613 18.0891 9.50281 20.4183H21.5524V33.6052H28.0292V20.4183H57.2422V13.9341H28.0292V5.11522C25.7698 6.14697 23.6009 7.3595 21.5524 8.72263Z" fill="#C41F38"/>
<path fill-rule="evenodd" clip-rule="evenodd" d="M64.7279 32.6337H68.6591L69.8868 28.8833L71.0992 32.6337H75.0229L71.8449 34.9458L73.0573 38.6963L69.8868 36.3767L66.686 38.6963L67.9136 34.9458L64.7279 32.6337Z" fill="white"/>
<path fill-rule="evenodd" clip-rule="evenodd" d="M66.4752 33.2061H69.0735L69.8869 30.7284L70.6851 33.2061H73.2759L71.1822 34.7349L71.9806 37.2201L69.8869 35.6838L67.7707 37.2201L68.5764 34.7349L66.4752 33.2061Z" fill="white"/>
<path fill-rule="evenodd" clip-rule="evenodd" d="M48.9655 48.4866H52.8968L54.1242 44.7362L55.3444 48.4866H59.2755L56.105 50.7987L57.3024 54.5415L54.1242 52.2296L50.9462 54.5415L52.1587 50.7987L48.9655 48.4866Z" fill="white"/>
<path fill-rule="evenodd" clip-rule="evenodd" d="M50.7129 49.059H53.3185L54.1243 46.5737L54.9302 49.059H57.5433L55.4272 50.5878L56.2329 53.0655L54.1243 51.5216L52.0081 53.0655L52.829 50.5878L50.7129 49.059Z" fill="white"/>
<path fill-rule="evenodd" clip-rule="evenodd" d="M78.7961 44.5629H82.298L83.39 41.2191L84.4669 44.5629H87.9688L85.1296 46.6039L86.2216 49.9476L83.39 47.8917L80.5433 49.9476L81.6353 46.6039L78.7961 44.5629Z" fill="white"/>
<path fill-rule="evenodd" clip-rule="evenodd" d="M80.3475 45.06H82.6747L83.3901 42.8534L84.0979 45.06H86.425L84.5423 46.423L85.2577 48.6296L83.3901 47.2665L81.5073 48.6296L82.2303 46.423L80.3475 45.06Z" fill="white"/>
<path fill-rule="evenodd" clip-rule="evenodd" d="M64.1556 73.3542H68.5237L69.8867 69.1971L71.2348 73.3542H75.6104L72.0708 75.9298L73.4113 80.0945L69.8867 77.5264L66.3471 80.0945L67.6877 75.9298L64.1556 73.3542Z" fill="white"/>
<path fill-rule="evenodd" clip-rule="evenodd" d="M18.957 58.2908H23.325L24.6881 54.1337L26.0362 58.2908H30.4117L26.8721 60.8664L28.2127 65.0311L24.6881 62.463L21.1485 65.0311L22.4891 60.8664L18.957 58.2908" fill="white"/>
<path fill-rule="evenodd" clip-rule="evenodd" d="M20.3701 55.6002L24.153 57.7842L27.412 54.8655L26.5009 59.1398L30.2902 61.3275L25.9371 61.7882L25.0157 66.0653L23.2473 62.0789L18.8979 62.5332L22.1412 59.5967L20.3701 55.6002" fill="white"/>
<path fill-rule="evenodd" clip-rule="evenodd" d="M66.0912 73.9944H68.9831L69.8868 71.2455L70.7756 73.9944H73.6674L71.3327 75.6964L72.2215 78.4527L69.8868 76.7507L67.5447 78.4527L68.441 75.6964L66.0912 73.9944Z" fill="white"/>
</svg>
