<svg width="94" height="93" viewBox="0 0 94 93" fill="none" xmlns="http://www.w3.org/2000/svg">
<path fill-rule="evenodd" clip-rule="evenodd" d="M3.58337 31.0493H90.8534C84.5122 13.0877 67.394 0.217052 47.271 0.19446H47.1657C27.0427 0.217052 9.92453 13.0877 3.58337 31.0493Z" fill="#3CA358"/>
<path fill-rule="evenodd" clip-rule="evenodd" d="M3.59084 61.8965H90.846C92.5556 57.0691 93.4894 51.8802 93.4894 46.4654C93.4894 41.0581 92.5555 35.8692 90.8535 31.0493H3.58327C1.88124 35.8692 0.947388 41.0581 0.947388 46.4654C0.947388 51.8802 1.88129 57.0691 3.59084 61.8965Z" fill="#EFD810"/>
<path fill-rule="evenodd" clip-rule="evenodd" d="M90.8458 61.8965H3.59094C9.93962 79.8656 27.0728 92.7362 47.2183 92.7362C67.3639 92.7362 84.4896 79.8656 90.8458 61.8965Z" fill="#566ABC"/>
</svg>
