<svg width="116" height="116" viewBox="0 0 116 116" fill="none" xmlns="http://www.w3.org/2000/svg">
<path fill-rule="evenodd" clip-rule="evenodd" d="M27.2458 106.989V9.47391C11.0261 19.6229 0.22226 37.6386 0.203552 58.1704V58.3014C0.22226 78.8333 11.0261 96.849 27.2458 106.989ZM88.1025 9.48322V106.989C104.341 96.8396 115.145 78.7959 115.145 58.2359C115.145 37.676 104.341 19.6322 88.1025 9.48322" fill="#E51E29"/>
<path fill-rule="evenodd" clip-rule="evenodd" d="M88.1025 106.989V9.48315C79.2818 3.95497 68.8521 0.765259 57.6741 0.765259C46.4962 0.765259 36.0665 3.95501 27.2457 9.47383V106.989C36.0665 112.517 46.4962 115.707 57.6741 115.707C68.8521 115.707 79.2818 112.507 88.1025 106.989Z" fill="white"/>
<path fill-rule="evenodd" clip-rule="evenodd" d="M57.6742 27.7514L52.7727 37.2551C52.2208 38.2933 51.2293 38.1811 50.2285 37.6105L46.6833 35.6929L49.3304 50.3131C49.8823 52.9883 48.0957 52.9883 47.2165 51.8378L41.0335 44.6166L40.0327 48.274C39.9204 48.7604 39.4059 49.2655 38.6389 49.1439L30.819 47.4228L32.8769 55.2052C33.3259 56.945 33.6533 57.6653 32.4372 58.1143L29.6404 59.48L43.1101 70.873C43.6339 71.3127 43.9145 72.0797 43.7181 72.7813L42.5395 76.8128C47.1697 76.2609 51.3416 75.7558 55.9624 75.1946C56.374 75.1946 57.0662 75.5594 57.0568 76.0458L56.4394 90.8063H58.7031L58.3383 76.0832C58.3383 75.5968 58.965 75.1946 59.3672 75.1946C64.0067 75.7558 68.1599 76.2609 72.7995 76.8128L71.6115 72.7813C71.4338 72.0797 71.705 71.3127 72.2289 70.873L85.6892 59.48L82.9018 58.1143C81.6764 57.6653 82.0225 56.945 82.4621 55.2052L84.52 47.4228L76.7001 49.1439C75.9237 49.2655 75.4186 48.7604 75.3063 48.274L74.3054 44.6166L68.1225 51.8378C67.2433 52.9883 65.4567 52.9883 66.0179 50.3131L68.6557 35.6929L65.1199 37.6105C64.1096 38.1811 63.1181 38.2933 62.5663 37.2551L57.6742 27.7514Z" fill="#E51E29"/>
</svg>
