<svg width="116" height="115" viewBox="0 0 116 115" fill="none" xmlns="http://www.w3.org/2000/svg">
<path fill-rule="evenodd" clip-rule="evenodd" d="M57.7357 114.976H57.861C89.5722 114.939 115.268 89.2248 115.268 57.5055C115.268 25.7676 89.5385 0.0349129 57.7982 0.0349129C26.058 0.0349129 0.327698 25.7676 0.327698 57.5055C0.327698 89.2248 26.0243 114.939 57.7357 114.976" fill="white"/>
<path fill-rule="evenodd" clip-rule="evenodd" d="M57.7357 114.976H57.7989V0.0349129H57.7982C26.058 0.0349129 0.327698 25.7676 0.327698 57.5055C0.327698 89.2248 26.0243 114.939 57.7357 114.976" fill="#313A94"/>
<path fill-rule="evenodd" clip-rule="evenodd" d="M57.7357 114.976H57.861C89.5722 114.939 115.268 89.2248 115.268 57.5056H0.327698C0.327698 89.2248 26.0243 114.939 57.7357 114.976Z" fill="#C8242C"/>
<path fill-rule="evenodd" clip-rule="evenodd" d="M29.0841 14.3934L24.6337 28.0688L31.4737 30.2856L29.0841 14.3934Z" fill="white"/>
<path fill-rule="evenodd" clip-rule="evenodd" d="M29.0841 14.3934L33.5111 28.0688L26.6758 30.2856L29.0841 14.3934Z" fill="white"/>
<path fill-rule="evenodd" clip-rule="evenodd" d="M42.7343 24.318H28.3851V31.5111L42.7343 24.318Z" fill="white"/>
<path fill-rule="evenodd" clip-rule="evenodd" d="M42.7343 24.3179L31.1029 32.7738L26.894 26.9463L42.7343 24.3179Z" fill="white"/>
<path fill-rule="evenodd" clip-rule="evenodd" d="M15.4058 24.3179L27.0471 32.7738L31.2508 26.9463L15.4058 24.3179Z" fill="white"/>
<path fill-rule="evenodd" clip-rule="evenodd" d="M15.4058 24.318H29.7831V31.5111L15.4058 24.318Z" fill="white"/>
<path fill-rule="evenodd" clip-rule="evenodd" d="M37.5151 40.3785L33.088 26.7219L26.2531 28.9388L37.5151 40.3785Z" fill="white"/>
<path fill-rule="evenodd" clip-rule="evenodd" d="M37.5151 40.3785L25.8837 31.9319L30.1291 26.1417L37.5151 40.3785Z" fill="white"/>
<path fill-rule="evenodd" clip-rule="evenodd" d="M20.6349 40.3785L32.2612 31.9319L28.0205 26.1417L20.6349 40.3785Z" fill="white"/>
<path fill-rule="evenodd" clip-rule="evenodd" d="M20.6349 40.3785L25.0615 26.7219L31.8969 28.9388L20.6349 40.3785Z" fill="white"/>
</svg>
