<svg width="94" height="93" viewBox="0 0 94 93" fill="none" xmlns="http://www.w3.org/2000/svg">
<path fill-rule="evenodd" clip-rule="evenodd" d="M46.7455 0.405334C72.3006 0.405334 93.0163 21.1233 93.0163 46.6762C93.0163 72.2291 72.3006 92.9471 46.7455 92.9471C21.1911 92.9471 0.474625 72.2291 0.474625 46.6762C0.474625 21.1233 21.1911 0.405334 46.7455 0.405334Z" fill="#D1202C"/>
<path fill-rule="evenodd" clip-rule="evenodd" d="M15.7348 33.9036L18.7118 24.6704L10.8863 18.9318L20.5856 18.9092L23.6146 9.6912L26.6292 18.9092L36.336 18.9468L28.4924 24.6704L31.4567 33.9036L23.6048 28.195L15.7348 33.9036ZM42.7886 38.8891L46.0707 40.2221L48.3481 37.5034L48.1018 41.0354L51.3786 42.3609L47.9519 43.2345L47.6959 46.7214L45.8146 43.7466L42.397 44.575L44.6511 41.8865L42.7886 38.8891ZM60.5273 21.1459L57.0427 20.5359L55.3783 23.6537L54.8866 20.1669L51.4027 19.5192L54.574 17.9829L54.092 14.4809L56.5547 17.0113L59.7275 15.475L58.0684 18.6004L60.5273 21.1459ZM53.1423 36.9536L54.2208 33.5947L51.3688 31.5011H54.9054L55.9974 28.1498L57.0939 31.5011H60.6305L57.7853 33.5947L58.8539 36.9536L55.9974 34.8826L53.1423 36.9536ZM42.9679 6.27956L46.1693 7.77077L48.58 5.18756L48.1636 8.69708L51.3499 10.2108L47.894 10.8735L47.4541 14.383L45.7341 11.3028L42.2683 11.9505L44.6699 9.3673L42.9679 6.27956Z" fill="#F0E606"/>
</svg>
