<svg width="94" height="93" viewBox="0 0 94 93" fill="none" xmlns="http://www.w3.org/2000/svg">
<path fill-rule="evenodd" clip-rule="evenodd" d="M46.6958 92.9725H46.7959C72.3277 92.9426 93.0163 72.2395 93.0163 46.7019C93.0163 21.149 72.3006 0.43103 46.7455 0.43103C21.1911 0.43103 0.475372 21.149 0.475372 46.7019C0.475372 72.2395 21.164 92.9426 46.6958 92.9725Z" fill="#CB202F"/>
<path fill-rule="evenodd" clip-rule="evenodd" d="M0.475372 46.6941H93.0163C93.0103 21.1413 72.2968 0.430786 46.7455 0.430786C21.1948 0.430786 0.480644 21.1413 0.475372 46.6941Z" fill="white"/>
<path fill-rule="evenodd" clip-rule="evenodd" d="M5.46019 67.6079L36.8346 46.6941L5.4647 25.7805C2.27454 32.069 0.475372 39.1708 0.475372 46.7018C0.475372 54.2252 2.27304 61.3348 5.46019 67.6079Z" fill="#2B4281"/>
</svg>
