<svg width="93" height="94" viewBox="0 0 93 94" fill="none" xmlns="http://www.w3.org/2000/svg">
<path fill-rule="evenodd" clip-rule="evenodd" d="M21.0142 85.8512V8.65784C8.5111 16.942 0.263855 31.1305 0.263855 47.2545C0.263855 63.3785 8.5111 77.567 21.0142 85.8512Z" fill="#C21F35"/>
<path fill-rule="evenodd" clip-rule="evenodd" d="M46.485 0.983644H46.5851C66.7111 1.00624 83.8247 13.8768 90.1704 31.8384H21.0142V8.65778C28.317 3.81531 37.0704 0.991175 46.485 0.983644" fill="#3A9F3C"/>
<path fill-rule="evenodd" clip-rule="evenodd" d="M21.0142 31.8384H90.1703C91.8754 36.6583 92.8055 41.8472 92.8055 47.2545C92.8055 52.6618 91.8746 57.8582 90.1681 62.6781H21.0142V31.8384" fill="white"/>
<path fill-rule="evenodd" clip-rule="evenodd" d="M90.1681 62.6782H21.0142V85.8513C28.3298 90.7012 37.102 93.5254 46.5347 93.5254C66.6802 93.5254 83.8156 80.6473 90.1681 62.6782Z" fill="#221F1E"/>
</svg>
