<svg width="93" height="93" viewBox="0 0 93 93" fill="none" xmlns="http://www.w3.org/2000/svg">
<path fill-rule="evenodd" clip-rule="evenodd" d="M89.9055 61.6949L2.6355 61.6949C8.99171 79.6655 26.1249 92.5414 46.2705 92.5414C66.4161 92.5414 83.5493 79.6655 89.9055 61.6949Z" fill="#3C9F5B"/>
<path fill-rule="evenodd" clip-rule="evenodd" d="M89.9055 30.8469L2.63543 30.8469C0.933411 35.6563 0.00708985 40.8301 -0.000440983 46.2208L-0.000440978 46.321C0.00709032 51.7117 0.933412 56.8855 2.63543 61.6949L89.9055 61.6949C91.6075 56.8705 92.5414 51.6801 92.5414 46.2713C92.5414 40.8617 91.6075 35.6713 89.9055 30.8469" fill="white"/>
<path fill-rule="evenodd" clip-rule="evenodd" d="M2.63547 30.8469L89.9055 30.8469C83.5493 12.8763 66.4161 0.000427156 46.2705 0.000428037C26.1249 0.000428917 8.99168 12.8763 2.63547 30.8469" fill="#EB6F32"/>
</svg>
