<svg width="116" height="116" viewBox="0 0 116 116" fill="none" xmlns="http://www.w3.org/2000/svg">
<path fill-rule="evenodd" clip-rule="evenodd" d="M38.9106 112.433V4.03918C16.5922 11.9246 0.606278 33.2048 0.596924 58.2172V58.2546C0.606278 83.2671 16.5922 104.547 38.9106 112.433" fill="#299440"/>
<path fill-rule="evenodd" clip-rule="evenodd" d="M77.2244 112.433V4.03914C71.2472 1.92515 64.8211 0.774613 58.133 0.765259H58.002C51.3139 0.774613 44.8878 1.92515 38.9106 4.03914V112.433C44.9065 114.547 51.3514 115.707 58.0675 115.707C64.7836 115.707 71.2285 114.547 77.2244 112.433" fill="#FAFCFA"/>
<path fill-rule="evenodd" clip-rule="evenodd" d="M77.2242 4.03918V112.433C99.5427 104.538 115.538 83.2577 115.538 58.2359C115.538 33.2141 99.5427 11.9246 77.2242 4.03918Z" fill="#D32335"/>
</svg>
