<svg width="94" height="93" viewBox="0 0 94 93" fill="none" xmlns="http://www.w3.org/2000/svg">
<path fill-rule="evenodd" clip-rule="evenodd" d="M47.0324 0.405337H46.9315C21.4005 0.435461 0.711121 21.1384 0.711121 46.6762C0.711121 72.2291 21.4276 92.9471 46.982 92.9471C72.5371 92.9471 93.2529 72.2291 93.2529 46.6762C93.2529 21.1384 72.5643 0.435461 47.0324 0.405337Z" fill="#B71F38"/>
<path fill-rule="evenodd" clip-rule="evenodd" d="M40.6761 39.2807L20.261 39.3033L43.4973 57.0389L46.9849 54.3881L32.8883 43.596L39.3341 43.5885L40.6761 39.2807" fill="#2C6A3B"/>
<path fill-rule="evenodd" clip-rule="evenodd" d="M53.2982 39.2807L46.9759 18.864L38.1058 47.5874L41.5889 50.246L46.9759 32.8416L48.9844 39.2807H53.2982" fill="#2C6A3B"/>
<path fill-rule="evenodd" clip-rule="evenodd" d="M57.1978 51.9102L73.7194 39.2807H44.9764L43.6494 43.5884H61.0642L55.8708 47.5874L57.1978 51.9102Z" fill="#2C6A3B"/>
<path fill-rule="evenodd" clip-rule="evenodd" d="M46.985 59.72L63.5022 72.312L54.6268 43.5885H50.3168L55.7007 61.0078L50.4734 57.0389L46.985 59.72Z" fill="#2C6A3B"/>
<path fill-rule="evenodd" clip-rule="evenodd" d="M36.7638 51.8878L30.4686 72.327L53.7004 54.5688L52.3727 50.246L38.2798 61.0304L40.2598 54.5914L36.7638 51.8878" fill="#2C6A3B"/>
</svg>
