<svg width="94" height="93" viewBox="0 0 94 93" fill="none" xmlns="http://www.w3.org/2000/svg">
<path fill-rule="evenodd" clip-rule="evenodd" d="M90.8534 62.1255H3.58337C9.93959 80.0944 27.0728 92.9725 47.2184 92.9725C67.364 92.9725 84.4972 80.0944 90.8534 62.1255Z" fill="#64A1DC"/>
<path fill-rule="evenodd" clip-rule="evenodd" d="M3.58327 62.1255H90.8535C92.5555 57.3053 93.4894 52.1092 93.4894 46.7018C93.4894 41.2945 92.5555 36.1056 90.8535 31.2782H3.58327C1.88124 36.1056 0.947388 41.2945 0.947388 46.7018C0.947388 52.1092 1.88124 57.3053 3.58327 62.1255Z" fill="white"/>
<path fill-rule="evenodd" clip-rule="evenodd" d="M3.58337 31.2782H90.8534C84.5047 13.3091 67.364 0.431028 47.2184 0.431028C27.0728 0.431028 9.93206 13.3091 3.58337 31.2782Z" fill="#DD1C37"/>
</svg>
