<svg width="94" height="93" viewBox="0 0 94 93" fill="none" xmlns="http://www.w3.org/2000/svg">
<path fill-rule="evenodd" clip-rule="evenodd" d="M46.982 0.299984C72.5371 0.299984 93.2529 21.018 93.2529 46.5708C93.2529 72.1237 72.5371 92.8417 46.982 92.8417C21.4276 92.8417 0.711121 72.1237 0.711121 46.5708C0.711121 21.018 21.4276 0.299984 46.982 0.299984Z" fill="white"/>
<path fill-rule="evenodd" clip-rule="evenodd" d="M18.4121 10.1732L49.8686 31.1321H90.6094C84.2532 13.1705 67.1231 0.299926 46.982 0.299926C36.1998 0.299926 26.2791 3.99019 18.4121 10.1732Z" fill="#D42633"/>
<path fill-rule="evenodd" clip-rule="evenodd" d="M59.1251 37.3001H92.3264C91.8971 35.1914 91.3172 33.1278 90.6093 31.1321H49.8687L59.1251 37.3001V37.3001ZM49.8687 62.002H90.6093C91.3172 60.0062 91.8971 57.9351 92.3264 55.8189H59.1251L49.8687 62.002" fill="white"/>
<path fill-rule="evenodd" clip-rule="evenodd" d="M49.8686 62.002L18.4113 82.9684C26.2783 89.1514 36.1997 92.8417 46.9819 92.8417C67.1245 92.8417 84.2607 79.9711 90.6094 62.002H49.8686Z" fill="#2D348A"/>
<path fill-rule="evenodd" clip-rule="evenodd" d="M1.87321 56.9185L17.3969 46.5557L1.87622 36.2081C1.11484 39.5444 0.711121 43.0086 0.711121 46.5708C0.711121 50.1255 1.11408 53.5898 1.87321 56.9185Z" fill="#221F1E"/>
<path fill-rule="evenodd" clip-rule="evenodd" d="M1.87767 36.2081L17.397 46.5557L1.87238 56.9109C2.35436 59.0196 2.984 61.0831 3.74389 63.0714L28.5181 46.5557L3.75367 30.0476C2.98378 32.0542 2.35687 34.1129 1.87767 36.2081" fill="#EEB30D"/>
<path fill-rule="evenodd" clip-rule="evenodd" d="M3.75368 30.0476L28.5181 46.5557L3.7439 63.0713C5.98891 68.9531 9.39747 74.2549 13.6879 78.6982L48.0017 55.8189H92.3265C92.9365 52.8291 93.2529 49.7414 93.2529 46.5708C93.2529 43.3927 92.9365 40.2975 92.3265 37.3001H48.0017L13.6917 14.4358C9.40499 18.8791 5.99869 24.1734 3.75368 30.0476" fill="#317C4C"/>
</svg>
