<svg width="116" height="116" viewBox="0 0 116 116" fill="none" xmlns="http://www.w3.org/2000/svg">
<path fill-rule="evenodd" clip-rule="evenodd" d="M57.8603 0.372074H57.7353C26.024 0.409489 0.327393 26.1235 0.327393 57.8427C0.327393 89.5806 26.058 115.313 57.7978 115.313C89.5385 115.313 115.268 89.5806 115.268 57.8427C115.268 26.1235 89.5712 0.409489 57.8603 0.372074" fill="white"/>
<path fill-rule="evenodd" clip-rule="evenodd" d="M81.5436 29.1354L86.9745 37.3015L84.014 39.2937L78.5747 31.1186L81.5436 29.1354V29.1354ZM87.9679 38.7888L93.4203 46.9547L90.4467 48.9283L85.0037 40.7717L87.9679 38.7888V38.7888ZM85.9999 26.1703L97.8728 43.9895L94.9001 45.9632L83.0272 28.1533L85.9999 26.1703V26.1703ZM90.4467 23.1957L95.8926 31.3804L92.919 33.3447L87.4731 25.1788L90.4467 23.1957ZM96.8766 32.8677L102.312 41.0337L99.347 43.0074L93.9105 34.8413L96.8766 32.8677ZM25.1437 66.7382L37.0184 84.5388L34.0486 86.5218L22.179 68.7214L25.1437 66.7382ZM20.6962 69.7128L26.1281 77.8601L23.1681 79.843L17.7271 71.6958L20.6962 69.7128ZM27.1264 79.366L32.5655 87.5321L29.6004 89.5057L24.1598 81.3492L27.1264 79.366V79.366ZM16.2462 72.678L28.1088 90.4879L25.1437 92.4615L13.2723 74.6611L16.2462 72.678V72.678ZM22.179 46.9547L34.0486 29.1354L37.0184 31.1186L25.1437 48.9283L22.179 46.9547V46.9547ZM17.7271 43.9895L29.6004 26.1703L32.5655 28.1533L20.6962 45.9632L17.7271 43.9895V43.9895ZM13.2723 41.0337L25.1437 23.1957L28.1088 25.1788L16.2462 43.0074L13.2723 41.0337V41.0337ZM78.5747 84.5388L84.014 76.3916L86.9745 78.3745L81.5436 86.5218L78.5747 84.5388V84.5388ZM85.0037 74.9229L90.4467 66.7382L93.4203 68.7214L87.9679 76.8872L85.0037 74.9229ZM83.0272 87.5321L88.4674 79.366L91.4354 81.3492L85.9999 89.5057L83.0272 87.5321V87.5321ZM89.4552 77.8601L94.9001 69.7128L97.8728 71.6958L92.4288 79.843L89.4552 77.8601ZM87.4731 90.4879L92.919 82.3313L95.8926 84.305L90.4467 92.4615L87.4731 90.4879ZM93.9105 80.844L99.347 72.678L102.312 74.6611L96.8766 82.8177L93.9105 80.844" fill="#221F1E"/>
<path fill-rule="evenodd" clip-rule="evenodd" d="M39.9909 45.9632C39.908 46.066 39.8334 46.1877 39.7625 46.328C39.8422 46.1877 39.908 46.066 39.9909 45.9632Z" fill="#BD1E3B"/>
<path fill-rule="evenodd" clip-rule="evenodd" d="M69.6744 40.0234C59.8355 33.4663 46.546 36.1415 39.9909 45.9632C36.7021 50.8646 38.0397 57.5339 42.9597 60.8078C47.876 64.091 54.5129 62.7628 57.793 57.8427C61.0741 52.9225 67.7195 51.6035 72.6359 54.868C77.5598 58.1419 78.8806 64.8114 75.5964 69.7128C82.1563 59.8725 79.5063 46.5805 69.6744 40.0234" fill="#BD1E3B"/>
<path fill-rule="evenodd" clip-rule="evenodd" d="M39.991 45.9632C36.7021 50.8647 38.0397 57.5339 42.9597 60.8078C47.876 64.091 54.5129 62.7629 57.793 57.8427C61.0742 52.9225 67.7195 51.6035 72.6359 54.8681C77.5598 58.1419 78.8806 64.8114 75.5964 69.7129C69.0449 79.5719 55.76 82.2191 45.9201 75.6526C36.0908 69.0955 33.4311 55.8035 39.991 45.9632" fill="#2A3979"/>
</svg>
