<svg width="93" height="94" viewBox="0 0 93 94" fill="none" xmlns="http://www.w3.org/2000/svg">
<path fill-rule="evenodd" clip-rule="evenodd" d="M46.3765 93.0525H46.4819C72.0122 93.0224 92.7001 72.3194 92.7001 46.7816C92.7001 21.2287 71.9821 0.510738 46.4292 0.510738C20.8838 0.510738 0.165856 21.2212 0.158325 46.7666V46.7966C0.165856 72.3269 20.8537 93.0224 46.3765 93.0525" fill="white"/>
<path fill-rule="evenodd" clip-rule="evenodd" d="M84.913 72.4776C82.3148 76.3636 79.1367 79.8279 75.5142 82.765H17.3443C13.7219 79.8279 10.5438 76.3636 7.94555 72.4776H84.913ZM92.4139 51.9102C92.0223 55.48 91.224 58.9293 90.0642 62.2053H2.79427C1.63449 58.9293 0.836256 55.48 0.444641 51.9102H92.4139ZM90.0642 31.3504C91.2165 34.6265 92.0223 38.0681 92.4139 41.6378H51.5955V31.3504H90.0642ZM51.5955 21.063H84.8979C82.2997 17.1845 79.1216 13.7202 75.4992 10.7906H51.5955V21.063" fill="#4A6CBC"/>
<path fill-rule="evenodd" clip-rule="evenodd" d="M28.3848 27.2762L28.814 34.4833C22.149 39.3032 26.261 42.135 21.4412 43.6939C24.7021 40.4405 20.4546 40.4405 24.1297 33.0751L28.3848 27.2762" fill="#E6C60D"/>
<path fill-rule="evenodd" clip-rule="evenodd" d="M28.5355 27.2762L28.9572 34.4833H28.6635L28.0986 27.2762H28.5355ZM28.9572 34.4833V34.634L28.8141 34.4833H28.9572ZM28.9572 34.634L28.6635 34.3479C25.1238 36.9009 24.5591 39.0246 24.1298 40.5835H24.559C24.9808 39.1601 25.4101 37.1795 28.9572 34.634ZM24.559 40.5835C24.1297 42.1349 23.8511 43.1291 21.5842 43.837L21.4412 43.5508C23.5725 42.8428 23.8511 41.8562 24.1298 40.5835H24.559V40.5835ZM21.5842 43.837L20.8763 44.1156L21.3056 43.6939H21.4412L21.5842 43.837V43.837ZM21.3056 43.6939L21.5842 43.837C23.1356 42.2781 23.0076 41.2839 22.8645 40.1543H22.4353C22.7215 41.2915 22.7215 42.1349 21.3056 43.6939ZM22.4353 40.1543C22.2922 38.7384 22.0135 36.9009 23.9942 33.0751L24.2804 33.2182C22.4353 37.0364 22.5859 38.7384 22.857 40.1543H22.4353Z" fill="#313234"/>
<path fill-rule="evenodd" clip-rule="evenodd" d="M26.1179 32.7888L25.8393 32.6534C24.1297 35.6281 23.708 38.0305 23.4293 39.7326L23.8511 39.8757C23.9942 38.0306 24.4159 35.7636 26.1179 32.7888V32.7888ZM23.8511 39.8757C23.5725 41.7133 23.2862 43.1291 21.5842 43.837L21.4412 43.5508C23.0076 42.8428 23.1356 41.5626 23.4293 39.7326L23.8511 39.8757Z" fill="#313234"/>
<path fill-rule="evenodd" clip-rule="evenodd" d="M28.3848 27.2762L27.82 19.9032C34.47 15.0984 30.373 12.2592 35.1854 10.7078C32.06 14.1043 36.1795 14.1043 32.4893 21.3266L28.3848 27.2762Z" fill="#E6C60D"/>
<path fill-rule="evenodd" clip-rule="evenodd" d="M28.0986 27.2762L27.6844 20.0538L27.9631 19.9032L28.5355 27.2762H28.0986ZM27.6844 20.0538V19.9032H27.82L27.6844 20.0538ZM27.6844 19.9032L27.9631 20.0538C31.4951 17.5083 32.06 15.5126 32.4893 13.9612L32.06 13.8257C31.7813 15.3846 31.2164 17.3577 27.6844 19.9032ZM32.06 13.8257C32.4892 12.4023 32.7754 11.2651 35.0422 10.5647L35.1854 10.8434C33.0541 11.5514 32.7754 12.5453 32.4893 13.9612L32.06 13.8257V13.8257ZM35.0422 10.5572L35.7502 10.4216L35.3209 10.8434L35.1854 10.7078L35.0422 10.5572ZM35.3209 10.8434L35.0422 10.5647C33.4758 12.2667 33.6264 13.1103 33.762 14.3905L34.1987 14.2474C33.905 13.1102 33.9051 12.4024 35.3209 10.8434V10.8434ZM34.1987 14.2474C34.3268 15.6633 34.613 17.5084 32.6248 21.4697L32.3536 21.3266C34.1987 17.5008 34.0406 15.6633 33.762 14.3905L34.1987 14.2474Z" fill="#313234"/>
<path fill-rule="evenodd" clip-rule="evenodd" d="M30.5086 21.6052L30.7948 21.7483C32.4893 18.7811 32.9186 16.5067 33.1972 14.6691H32.9185C32.6248 16.3712 32.2031 18.6304 30.5086 21.6052V21.6052ZM32.9185 14.6691C33.1972 12.696 33.3403 11.4082 35.0423 10.5647L35.1854 10.8434C33.6265 11.5514 33.4758 12.8316 33.1972 14.6691H32.9185Z" fill="#313234"/>
<path fill-rule="evenodd" clip-rule="evenodd" d="M28.3848 27.2762L21.0119 27.6979C16.2071 21.0404 13.3755 25.1449 11.8165 20.3326C15.213 23.5935 15.0699 19.4815 22.4353 23.0286L28.3848 27.2762Z" fill="#E6C60D"/>
<path fill-rule="evenodd" clip-rule="evenodd" d="M28.3849 27.4118L21.012 27.9766V27.5472L28.2418 27.118L28.3849 27.4118ZM21.012 27.9766L20.8764 27.841L21.012 27.6979V27.9766ZM20.8764 27.841L21.1551 27.6979C18.6171 24.0152 16.6364 23.5935 14.9344 23.1642V23.4503C16.4858 23.8721 18.474 24.3014 20.8764 27.841V27.841ZM14.9344 23.4503C13.5185 23.021 12.3738 22.7425 11.6734 20.4832L11.9596 20.3326C12.6675 22.4563 13.6541 22.7425 14.9344 23.1642V23.4503V23.4503ZM11.6734 20.4832L11.3948 19.9032L11.9596 20.3326H11.8166L11.6734 20.4832ZM11.9596 20.3326L11.6734 20.4832C13.3755 22.0346 14.2189 21.8914 15.4992 21.7483L15.3562 21.4697C14.219 21.6053 13.5185 21.7484 11.9596 20.3326ZM15.3562 21.4622C16.7645 21.1836 18.6171 20.8973 22.586 22.878L22.2922 23.1642C18.474 21.3266 16.7644 21.6052 15.4992 21.7483L15.3562 21.4622Z" fill="#313234"/>
<path fill-rule="evenodd" clip-rule="evenodd" d="M22.7215 25.1448L22.8571 24.8587C19.8898 23.0287 17.6229 22.5993 15.7778 22.3132V22.7425C17.4798 23.0287 19.7467 23.2997 22.7215 25.1448V25.1448ZM15.7778 22.7425C13.7971 22.4563 12.5244 22.1777 11.6733 20.4832L11.9595 20.3326C12.6674 21.8915 13.9402 22.1776 15.7778 22.3132V22.7425Z" fill="#313234"/>
<path fill-rule="evenodd" clip-rule="evenodd" d="M28.3848 27.2762L35.6071 26.7038C40.4119 33.3538 43.2511 29.3923 44.8101 34.0691C41.4135 30.9437 41.5491 35.0558 34.1988 31.3731L28.3848 27.2762Z" fill="#E6C60D"/>
<path fill-rule="evenodd" clip-rule="evenodd" d="M28.2416 27.118L35.607 26.5532V26.8469L28.3847 27.4118L28.2416 27.118ZM35.607 26.5532H35.7501L35.607 26.7038V26.5532ZM35.7501 26.5532L35.464 26.8469C38.0095 30.3866 39.9977 30.9438 41.6922 31.3731V31.0944C40.1408 30.6651 38.1526 30.1003 35.7501 26.5532V26.5532ZM41.6922 31.0944C43.108 31.373 44.2528 31.6517 44.9532 34.0691L44.6746 34.0616C43.9666 31.9379 42.9725 31.6517 41.6922 31.3731V31.0944V31.0944ZM44.9532 34.0616L45.2318 34.634L44.6746 34.2122L44.8101 34.0616H44.9532ZM44.6746 34.2122L44.9532 33.9185C43.2512 32.3671 42.4076 32.5102 41.1273 32.7888L41.2705 33.0751C42.4077 32.9245 43.2512 32.7889 44.6746 34.2122V34.2122ZM41.2705 33.0751C39.8546 33.2182 38.0094 33.4969 34.1987 31.5237L34.3267 31.23C38.1525 33.2182 39.8546 32.9244 41.1273 32.7888L41.2705 33.0751Z" fill="#313234"/>
<path fill-rule="evenodd" clip-rule="evenodd" d="M33.9051 29.3923L33.762 29.6786C36.7367 31.5237 39.1467 31.8024 40.8487 32.081L40.9843 31.8023C39.1467 31.5236 36.8798 31.0944 33.9051 29.3923ZM40.9843 31.8023C42.8294 32.0809 44.1021 32.2165 44.9531 34.0691L44.6745 34.2122C43.9665 32.5102 42.6863 32.3672 40.8487 32.0885L40.9843 31.8023Z" fill="#313234"/>
<path fill-rule="evenodd" clip-rule="evenodd" d="M28.3848 27.2762L23.5725 32.7888C15.3561 31.373 16.2071 36.336 11.8165 34.0691C16.4858 33.9185 13.5185 31.0944 21.155 28.4058L28.3848 27.2762Z" fill="#E6C60D"/>
<path fill-rule="evenodd" clip-rule="evenodd" d="M28.3848 27.2761L23.708 32.7888L23.4294 32.6533L28.2417 27.118L28.3848 27.2761ZM23.708 32.7888L23.5725 32.9244V32.7888H23.708ZM23.5725 32.9244V32.5102C19.1819 31.8023 17.3368 32.9244 15.921 33.7905L16.2072 34.0691C17.4799 33.2181 19.325 32.2165 23.5725 32.9244V32.9244ZM16.2072 34.0616C14.9344 34.777 13.9403 35.3418 11.6735 34.2122L11.8166 33.9185C13.9403 34.9126 14.7838 34.4909 15.921 33.7905L16.2072 34.0616V34.0616ZM11.6735 34.2122L11.1011 33.9185H11.8166V34.0616L11.6735 34.2122ZM11.8166 33.9185V34.2122C14.0759 34.2122 14.6407 33.4968 15.3562 32.5102L15.0699 32.2165C14.362 33.2181 13.9403 33.7904 11.8166 33.9185ZM15.0699 32.2165C15.9209 31.0943 17.0506 29.6785 21.155 28.2552L21.3057 28.5414C17.2013 29.9572 16.0641 31.373 15.3562 32.5102L15.0699 32.2165Z" fill="#313234"/>
<path fill-rule="evenodd" clip-rule="evenodd" d="M22.8645 29.6786L22.7215 29.3923C19.325 30.2434 17.4798 31.6517 16.064 32.6534L16.2071 32.9245C17.6229 31.9454 19.468 30.5221 22.8645 29.6786ZM16.2071 32.9245C14.6407 34.0617 13.6541 34.9126 11.8165 34.2122V33.9185C13.5185 34.4833 14.5051 33.7906 16.064 32.6534L16.2071 32.9245" fill="#313234"/>
<path fill-rule="evenodd" clip-rule="evenodd" d="M28.3848 27.2762L33.0541 21.7483C41.2705 23.0211 40.4119 18.0657 44.8101 20.3326C40.1408 20.4832 43.1081 23.4504 35.464 25.9959L28.3848 27.2762Z" fill="#E6C60D"/>
<path fill-rule="evenodd" clip-rule="evenodd" d="M28.2416 27.118L32.9184 21.6052L33.197 21.8915L28.3847 27.2762L28.2416 27.118ZM32.9184 21.6052H33.054V21.7483L32.9184 21.6052ZM33.054 21.6052V21.8915C37.4446 22.5994 39.2897 21.6053 40.698 20.7543L40.4118 20.4832C39.1466 21.1836 37.3015 22.3131 33.054 21.6052V21.6052ZM40.4118 20.4832C41.8352 19.6322 42.6863 19.2029 44.9531 20.197L44.81 20.4832C42.6862 19.4816 41.8352 20.0539 40.698 20.7543L40.4118 20.4832ZM44.9531 20.197L45.5179 20.4832L44.81 20.6112V20.3326L44.9531 20.197ZM44.81 20.6112V20.197C42.5507 20.3325 42.1214 21.0405 41.2704 22.0346L41.549 22.1777C42.2645 21.3267 42.6862 20.6112 44.81 20.6112V20.6112ZM41.549 22.1777C40.698 23.2998 39.5759 24.7232 35.4639 26.139L35.3208 25.8528C39.4253 24.5725 40.57 23.0287 41.2704 22.0346L41.549 22.1777" fill="#313234"/>
<path fill-rule="evenodd" clip-rule="evenodd" d="M33.762 24.7231L33.9051 25.1448C37.3016 24.3013 39.1467 22.878 40.5701 21.7483L40.4119 21.4697C39.0036 22.5994 37.166 24.0076 33.762 24.7231ZM40.4119 21.4622C41.9859 20.3326 43.108 19.6321 44.8101 20.1969V20.4832C43.108 19.9033 42.1215 20.7542 40.5701 21.7483L40.4119 21.4622Z" fill="#313234"/>
<path fill-rule="evenodd" clip-rule="evenodd" d="M28.3849 27.2762L22.8645 22.4563C24.1298 14.2474 19.1819 15.0984 21.4412 10.7078C21.5843 15.3846 24.5591 12.4098 27.1121 20.0538L28.3849 27.2762Z" fill="#E6C60D"/>
<path fill-rule="evenodd" clip-rule="evenodd" d="M28.2418 27.4118L22.7215 22.5994L23.0077 22.3132L28.3849 27.118L28.2418 27.4118ZM22.7215 22.5994V22.4563H22.8645L22.7215 22.5994ZM22.7215 22.4563H23.0077C23.708 18.0657 22.5859 16.3637 21.8705 14.9554L21.5842 15.0985C22.2922 16.3712 23.2863 18.2088 22.7215 22.4563V22.4563ZM21.5842 15.0985C20.7332 13.8257 20.1685 12.8316 21.3057 10.7078L21.5842 10.8434C20.5901 12.8316 21.155 13.6826 21.8705 14.9554L21.5842 15.0985ZM21.3057 10.7078L21.5842 10.1355V10.7078H21.3057ZM21.5842 10.7078H21.3057C21.4412 12.9747 22.1491 13.532 23.1357 14.2474L23.2863 13.9612C22.2922 13.2608 21.7273 12.8316 21.5842 10.7078V10.7078ZM23.2863 13.9612C24.416 14.8122 25.8393 15.9494 27.2476 20.0538L26.969 20.197C25.5531 16.085 24.1298 15.0984 23.1357 14.2474L23.2863 13.9612" fill="#313234"/>
<path fill-rule="evenodd" clip-rule="evenodd" d="M25.8393 21.7483H26.261C25.41 18.2087 23.9941 16.3637 22.8645 14.9554L22.5859 15.0985C23.708 16.5068 25.1238 18.3518 25.8393 21.7483ZM22.5859 15.0985C21.4411 13.532 20.7332 12.5454 21.3056 10.7078H21.5842C21.0118 12.4023 21.7273 13.404 22.857 14.9554L22.5859 15.0985" fill="#313234"/>
<path fill-rule="evenodd" clip-rule="evenodd" d="M28.3848 27.2762L33.7619 31.9379C32.4892 40.1543 37.4447 39.3033 35.1853 43.6939C35.0423 39.1602 32.0599 42.135 29.522 34.3479L28.3848 27.2762" fill="#E6C60D"/>
<path fill-rule="evenodd" clip-rule="evenodd" d="M28.3847 27.118L33.905 31.8023L33.7619 32.081L28.2416 27.4118L28.3847 27.118ZM33.905 31.8023L34.0406 31.9379L33.905 32.081L33.7619 31.9379L33.905 31.8023ZM33.905 32.081L33.6264 31.9454C32.9184 36.336 34.0406 38.1736 34.7485 39.5895L35.0422 39.4463C34.3268 38.0305 33.3402 36.3361 33.905 32.081V32.081ZM35.0422 39.4463C35.8932 40.7191 36.4581 41.7132 35.3209 43.837L35.0422 43.6939C36.0363 41.7132 35.464 40.7267 34.7485 39.5895L35.0422 39.4463V39.4463ZM35.3209 43.837L35.0422 44.4018V43.6939H35.1853L35.3209 43.837V43.837ZM35.0422 43.6939H35.3209C35.1853 41.427 34.4699 40.9978 33.4757 40.2899L33.3402 40.4405C34.3268 41.1409 34.8991 41.7132 35.0422 43.6939V43.6939ZM33.3402 40.4405C32.203 39.7326 30.7946 38.5954 29.3788 34.3479H29.6574C31.0733 38.3092 32.4892 39.4464 33.4757 40.2974L33.3402 40.4405" fill="#313234"/>
<path fill-rule="evenodd" clip-rule="evenodd" d="M30.7948 32.6534L30.5086 32.7888C31.2165 36.1929 32.6323 38.0305 33.762 39.5894L34.0406 39.3032C32.9185 37.8874 31.6458 36.0499 30.7948 32.6534V32.6534ZM34.0406 39.3032C35.1853 40.8621 35.8932 41.9994 35.3209 43.837L35.0422 43.6939C35.607 41.9994 34.8991 40.9978 33.762 39.5894L34.0406 39.3032Z" fill="#313234"/>
<path fill-rule="evenodd" clip-rule="evenodd" d="M28.3848 27.2762H31.4952L28.3848 45.1098L25.1238 27.2762H28.3848V45.1098V27.2762Z" fill="#E6C60D"/>
<path fill-rule="evenodd" clip-rule="evenodd" d="M28.3848 27.118V27.4118H31.4951V27.118H28.3848ZM31.4951 27.118H31.7813V27.2762H31.4951V27.118ZM31.7813 27.2762H31.3596L28.0986 45.1098H28.5354L31.7813 27.2762ZM28.5354 45.1098H28.0986L28.3848 45.9607L28.5354 45.1098ZM28.0986 45.1098H28.5354L25.2669 27.2762H24.8527L28.0986 45.1098ZM24.8527 27.118H25.1238V27.2762H24.8527V27.118ZM25.1238 27.118V27.4118H28.3848V27.118H25.1238ZM28.3848 27.118V27.2762H28.5354V27.118H28.3848ZM28.5354 45.1098H28.0986V27.2762H28.5354V45.1098Z" fill="#313234"/>
<path fill-rule="evenodd" clip-rule="evenodd" d="M28.3848 27.2762H25.1238L28.3848 9.29193L31.4952 27.2762H28.3848V9.29193V27.2762Z" fill="#E6C60D"/>
<path fill-rule="evenodd" clip-rule="evenodd" d="M28.3848 27.4118V27.118H25.1238V27.4118H28.3848ZM25.1238 27.4118H24.8527V27.2762H25.1238V27.4118ZM24.8527 27.2762H25.2669L28.5354 9.43505L28.0986 9.29193L24.8527 27.2762V27.2762ZM28.0986 9.29193H28.5354L28.3848 8.44101L28.0986 9.29193ZM28.5354 9.29193L28.0986 9.43505L31.3596 27.2762H31.7813L28.5354 9.29193V9.29193ZM31.7813 27.4118H31.4951V27.2762H31.7813V27.4118ZM31.4951 27.4118V27.118H28.3848V27.4118H31.4951ZM28.3848 27.4118V27.2762H28.0986V27.4118H28.3848ZM28.0986 9.29193H28.5354V27.2762H28.0986V9.29193Z" fill="#313234"/>
<path fill-rule="evenodd" clip-rule="evenodd" d="M28.3848 27.2762V30.522L10.4006 27.2762L28.3848 24.0076V27.2762H10.4006H28.3848Z" fill="#E6C60D"/>
<path fill-rule="evenodd" clip-rule="evenodd" d="M28.5354 30.522V27.2761H28.0985V30.522H28.5354ZM28.5354 30.522V30.6651H28.2417L28.3848 30.522H28.5354ZM28.2417 30.6651L28.3848 30.3865L10.5437 27.118L10.4005 27.4118L28.2417 30.6651ZM10.4005 27.4118V27.118L9.54205 27.2761L10.4005 27.4118V27.4118ZM10.4005 27.118L10.5437 27.4118L28.3848 24.1582L28.2417 23.8722L10.4005 27.118ZM28.2417 23.8722L28.5354 23.729V24.0076H28.3848L28.2417 23.8722ZM28.5354 27.2761V24.0076H28.0985V27.2761H28.5354ZM28.5354 27.4118V27.2761H28.3848V27.4118H28.5354ZM28.3848 27.4118H10.4005V27.118H28.3848V27.4118Z" fill="#313234"/>
<path fill-rule="evenodd" clip-rule="evenodd" d="M28.3848 27.2762V24.0076L46.2259 27.2762L28.3848 30.522V27.2762H46.2259H28.3848Z" fill="#E6C60D"/>
<path fill-rule="evenodd" clip-rule="evenodd" d="M28.0986 24.0076V27.2761H28.5354V24.0076H28.0986ZM28.0986 24.0076V23.729L28.3848 23.8722V24.0076H28.0986ZM28.3848 23.8722L28.2417 24.1582L46.0827 27.4118L46.2258 27.118L28.3848 23.8722ZM46.2258 27.118V27.4118L47.0844 27.2761L46.2258 27.118V27.118ZM46.2258 27.4118L46.0827 27.118L28.2417 30.3865L28.3848 30.6651L46.2258 27.4118ZM28.3848 30.6651H28.0986V30.522H28.3848V30.6651ZM28.0986 27.2761V30.522H28.5354V27.2761H28.0986ZM28.0986 27.118V27.2761H28.3848V27.118H28.0986ZM28.3848 27.118H46.2258V27.4118H28.3848V27.118Z" fill="#313234"/>
<path fill-rule="evenodd" clip-rule="evenodd" d="M28.3847 27.2762L30.6515 29.5355L15.6422 39.8757L25.9748 24.8587L28.3847 27.2762L15.6422 39.8757L28.3847 27.2762" fill="#E6C60D"/>
<path fill-rule="evenodd" clip-rule="evenodd" d="M28.3848 27.118L28.2417 27.4118L30.5085 29.6786L30.7948 29.3924L28.3848 27.118ZM30.7948 29.3924L30.9303 29.5355L30.6516 29.6786V29.5355L30.7948 29.3924V29.3924ZM30.6516 29.6786L30.5085 29.3924L15.6422 39.7326L15.7778 40.0112L30.6516 29.6786ZM15.7778 40.0112L15.6422 39.8757L15.4991 39.7326L15.0698 40.5835L15.7778 40.0112ZM15.4991 39.7326L15.7778 40.0112L26.1179 25.0018L25.8393 24.8587L15.4991 39.7326ZM25.8393 24.8587L25.9749 24.7231L26.1179 24.8587H25.8393V24.8587ZM26.1179 24.8587L25.8393 25.0018L28.2417 27.4118L28.3848 27.118L26.1179 24.8587V24.8587ZM28.3848 27.118V27.4118L28.5354 27.2762L28.3848 27.118V27.118ZM28.3848 27.4118L15.7778 40.0112L15.6422 39.7326L28.2417 27.118L28.3848 27.4118Z" fill="#313234"/>
<path fill-rule="evenodd" clip-rule="evenodd" d="M28.3848 27.2762L25.9749 24.8587L40.9843 14.5337L30.6517 29.5355L28.3848 27.2762L40.9843 14.5337L28.3848 27.2762" fill="#E6C60D"/>
<path fill-rule="evenodd" clip-rule="evenodd" d="M28.2417 27.4118L28.3848 27.118L26.1179 24.8587L25.8392 25.0018L28.2417 27.4118ZM25.8392 25.0018V24.8587H25.9749L25.8392 25.0018ZM25.9749 24.8587L26.1179 25.0018L40.9843 14.6691L40.8488 14.3906L25.9749 24.8587ZM40.8488 14.3906L40.9843 14.5337L41.1273 14.6691L41.5491 13.9612L40.8488 14.3906ZM41.1273 14.6691L40.8488 14.5337L30.5085 29.3923L30.7947 29.6786L41.1273 14.6691ZM30.7947 29.6786L30.6516 29.8292L30.5085 29.6786L30.6516 29.5355L30.7947 29.6786ZM30.5085 29.6786L30.7947 29.3923L28.3848 27.118L28.2417 27.4118L30.5085 29.6786ZM28.2417 27.4118L28.3848 27.2762L28.2417 27.118L28.0986 27.2762L28.2417 27.4118ZM28.2417 27.118L40.8488 14.5337L41.1273 14.6691L28.3848 27.4118L28.2417 27.118Z" fill="#313234"/>
<path fill-rule="evenodd" clip-rule="evenodd" d="M28.3847 27.2762L25.9748 29.5355L15.6422 14.5337L30.6515 24.8587L28.3847 27.2762L15.6422 14.5337L28.3847 27.2762" fill="#E6C60D"/>
<path fill-rule="evenodd" clip-rule="evenodd" d="M28.3848 27.4118L28.2417 27.118L25.8393 29.3923L26.1179 29.6786L28.3848 27.4118ZM26.1179 29.6786L25.9749 29.8292L25.8393 29.6786L25.9749 29.5355L26.1179 29.6786ZM25.8393 29.6786L26.1179 29.3923L15.7778 14.5337L15.4991 14.6691L25.8393 29.6786ZM15.4991 14.6691L15.6422 14.5337L15.7778 14.3906L15.0698 13.9612L15.4991 14.6691ZM15.7778 14.3906L15.6422 14.6691L30.5085 25.0018L30.6516 24.8587L15.7778 14.3906ZM30.6516 24.8587H30.9303L30.7948 25.0018L30.6516 24.8587V24.8587ZM30.7948 25.0018L30.5085 24.8587L28.2417 27.118L28.3848 27.4118L30.7948 25.0018ZM28.3848 27.4118V27.2762L28.2417 27.4118H28.3848ZM28.2417 27.4118L15.6422 14.6691L15.7778 14.5337L28.3848 27.118L28.2417 27.4118Z" fill="#313234"/>
<path fill-rule="evenodd" clip-rule="evenodd" d="M28.3848 27.2762L30.6517 24.8587L40.9843 39.8757L25.9749 29.5355L28.3848 27.2762L40.9843 39.8757L28.3848 27.2762" fill="#E6C60D"/>
<path fill-rule="evenodd" clip-rule="evenodd" d="M28.2417 27.118L28.3848 27.4118L30.7947 25.0018L30.5085 24.8587L28.2417 27.118ZM30.5085 24.8587L30.6516 24.7231L30.7947 24.8587H30.5085ZM30.7947 24.8587L30.5085 25.0018L40.8488 40.0112L41.1273 39.7326L30.7947 24.8587ZM41.1273 39.7326L40.9843 39.8757L40.8488 40.0112L41.5491 40.5835L41.1273 39.7326ZM40.8488 40.0112L40.9843 39.7326L26.1179 29.3924L25.9749 29.6786L40.8488 40.0112ZM25.9749 29.6786L25.8392 29.5355V29.3924L25.9749 29.5355V29.6786ZM25.8392 29.3924L26.1179 29.6786L28.3848 27.4118L28.2417 27.118L25.8392 29.3924V29.3924ZM28.2417 27.118L28.3848 27.2762V26.9824L28.2417 27.118V27.118ZM28.3848 27.118L41.1273 39.7326L40.8488 40.0112L28.2417 27.4118L28.3848 27.118Z" fill="#313234"/>
<path fill-rule="evenodd" clip-rule="evenodd" d="M34.3268 27.2762C34.3268 23.8721 31.6382 21.3266 28.3848 21.3266C24.9808 21.3266 22.2922 23.8721 22.2922 27.2762C22.2922 30.522 24.9808 33.2182 28.3848 33.2182C31.6382 33.2182 34.3268 30.522 34.3268 27.2762Z" fill="#E6C60D"/>
<path fill-rule="evenodd" clip-rule="evenodd" d="M34.0406 27.2762H34.4699C34.4699 25.5817 33.762 24.0077 32.6323 22.878L32.3536 23.1642C33.4758 24.1583 34.0406 25.5741 34.0406 27.2762V27.2762ZM32.3536 23.1642C31.3595 22.0346 29.9437 21.4697 28.3848 21.4697V21.0404C29.9437 21.0404 31.4951 21.7483 32.6248 22.878L32.3536 23.1642V23.1642ZM28.3848 21.4622V21.0404C26.6752 21.0404 25.1238 21.7483 23.9941 22.878L24.2803 23.1642C25.2669 22.0346 26.6752 21.4622 28.3848 21.4622V21.4622ZM24.2803 23.1642C23.1356 24.1583 22.5858 25.5817 22.5858 27.2762H22.149C22.149 25.5741 22.8569 24.0152 23.9941 22.878L24.2803 23.1642V23.1642ZM22.5858 27.2762H22.149C22.149 28.9782 22.8644 30.3865 23.9941 31.5162L24.2803 31.3731C23.1356 30.2434 22.5858 28.8276 22.5858 27.2762V27.2762ZM24.2803 31.3731C25.2669 32.3672 26.6752 33.0751 28.3848 33.0751V33.3537C26.6752 33.3537 25.1238 32.6534 23.9941 31.5237L24.2803 31.3731ZM28.3848 33.0751V33.3537C29.9437 33.3537 31.4951 32.6534 32.6323 31.5162L32.3536 31.3731C31.3595 32.3672 29.9437 33.0751 28.3848 33.0751V33.0751ZM32.3536 31.3731C33.4758 30.2434 34.0406 28.8276 34.0406 27.2762H34.4699C34.4699 28.9707 33.762 30.3865 32.6248 31.5237L32.3536 31.3731ZM32.6323 24.8587C32.3536 25.288 32.06 24.5725 30.7947 24.5725C29.3789 24.5725 29.2358 25.2879 28.9571 25.1448C28.814 25.0017 30.0792 24.0152 30.5085 24.0152C30.9302 23.8721 32.203 24.3014 32.6323 24.8587V24.8587ZM31.0733 25.2879C31.4951 25.7172 31.2165 26.4251 30.7947 26.4251C30.373 26.4251 29.6576 25.7172 30.0793 25.2879H31.0733Z" fill="#313234"/>
<path fill-rule="evenodd" clip-rule="evenodd" d="M29.3788 25.8528C29.3788 25.1448 29.9437 25.0018 30.7948 25.0018C31.6382 25.0018 32.0599 25.7172 32.3536 25.8528C32.0599 25.8528 31.6382 25.2879 30.7948 25.2879C29.9437 25.2879 29.9437 25.2879 29.3788 25.8528Z" fill="#313234"/>
<path fill-rule="evenodd" clip-rule="evenodd" d="M29.522 25.9959C29.6576 25.7173 29.9437 26.2821 30.6517 26.2821C31.2165 26.2821 31.4952 26.139 31.9244 25.8528C32.2031 25.5741 31.3596 26.5607 30.7948 26.5607C30.2299 26.5532 29.3789 26.139 29.522 25.9959Z" fill="#313234"/>
<path fill-rule="evenodd" clip-rule="evenodd" d="M31.3596 26.2821C32.06 25.9959 31.6382 25.4234 31.3596 25.2879C31.4951 25.4234 31.9244 25.9959 31.3596 26.2821ZM28.3848 29.5354C28.6635 29.5354 28.8141 29.3923 29.2358 29.3923C29.6575 29.3923 30.6516 30.1078 31.2165 29.8292C29.9437 30.3865 30.5086 29.9571 28.3848 29.9571H28.0986L28.3848 29.5354" fill="#313234"/>
<path fill-rule="evenodd" clip-rule="evenodd" d="M31.4952 30.3866C31.2165 29.9573 31.3596 30.1078 30.7947 29.3923C31.3596 29.8292 31.3596 29.9573 31.4952 30.3866Z" fill="#313234"/>
<path fill-rule="evenodd" clip-rule="evenodd" d="M28.3848 30.8083C29.6575 30.8083 29.5219 30.5221 31.2164 29.8292C29.9437 29.9573 29.6575 30.3866 28.3848 30.3866H28.0986L28.3848 30.8083ZM28.3848 28.8276C28.6634 28.8276 28.814 28.5415 29.2358 28.5415C29.6575 28.5415 30.2298 28.6845 30.5085 28.9782C30.6516 28.9706 30.3729 28.5415 29.9437 28.5415C29.5219 28.4059 29.6575 27.6979 29.2358 27.5548C29.2358 27.841 29.3788 27.8411 29.3788 28.1273C29.3788 28.4059 28.9571 28.4059 28.814 28.1273C28.9571 28.5415 28.5354 28.5415 28.3848 28.5415V28.8276V28.8276ZM23.9941 24.8588C24.2803 25.288 24.559 24.5725 25.8392 24.5725C27.2475 24.5725 27.3906 25.2879 27.6843 25.1448C27.8199 25.0018 26.5472 24.0152 26.1179 24.0152C25.6962 23.8721 24.4159 24.3015 23.9941 24.8588ZM25.5531 25.288C25.1238 25.7172 25.41 26.4251 25.8392 26.4251C26.2685 26.4251 26.9689 25.7172 26.5472 25.288H25.5531" fill="#313234"/>
<path fill-rule="evenodd" clip-rule="evenodd" d="M27.2476 25.8528C27.2476 25.1448 26.6752 25.0018 25.8393 25.0018C24.9807 25.0018 24.559 25.7172 24.2804 25.8528C24.7021 25.8528 24.9807 25.2879 25.8393 25.2879C26.6752 25.2879 26.6752 25.2879 27.2476 25.8528Z" fill="#313234"/>
<path fill-rule="evenodd" clip-rule="evenodd" d="M27.1119 25.9959C26.9689 25.7173 26.6752 26.2821 25.9748 26.2821C25.41 26.2821 25.1238 26.139 24.6946 25.8528C24.4159 25.5741 25.2669 26.5607 25.8392 26.5607C26.5471 26.5532 27.2475 26.139 27.1119 25.9959Z" fill="#313234"/>
<path fill-rule="evenodd" clip-rule="evenodd" d="M25.2669 26.2821C24.559 25.9959 24.9807 25.4234 25.2669 25.2879C25.1238 25.4234 24.6945 25.9959 25.2669 26.2821ZM28.3848 29.5354C27.963 29.5354 27.8199 29.3923 27.3907 29.3923C26.9689 29.3923 25.9748 30.1078 25.41 29.8292C26.6752 30.3865 26.1179 29.9571 28.3848 29.9571H28.5354L28.3848 29.5354Z" fill="#313234"/>
<path fill-rule="evenodd" clip-rule="evenodd" d="M25.1238 30.3866C25.41 29.9573 25.41 30.1078 25.8393 29.3923C25.41 29.8292 25.2669 29.9573 25.1238 30.3866Z" fill="#313234"/>
<path fill-rule="evenodd" clip-rule="evenodd" d="M28.3848 30.8082C26.969 30.8082 27.2476 30.5221 25.41 29.8292C26.6753 29.9572 26.969 30.3865 28.3848 30.3865H28.5355L28.3848 30.8082ZM28.3848 28.8275C27.9631 28.8275 27.82 28.5414 27.3907 28.5414C26.969 28.5414 26.3966 28.6844 26.1179 28.9781C25.9748 28.9706 26.261 28.5414 26.6753 28.5414C27.1121 28.4059 26.969 27.6978 27.3907 27.5547C27.3907 27.8409 27.2476 27.841 27.2476 28.1272C27.2476 28.4059 27.6844 28.4059 27.82 28.1272C27.6844 28.5414 28.0987 28.5414 28.3848 28.5414V28.8275ZM28.3848 31.3731C28.0987 31.3731 27.3907 31.5237 28.3848 31.5237C29.2359 31.5162 28.5355 31.3731 28.3848 31.3731Z" fill="#313234"/>
</svg>
