<svg width="115" height="116" viewBox="0 0 115 116" fill="none" xmlns="http://www.w3.org/2000/svg">
<path fill-rule="evenodd" clip-rule="evenodd" d="M88.1285 106.867H26.8602C35.7287 112.461 46.2322 115.707 57.4944 115.707C68.7574 115.707 79.261 112.461 88.1285 106.867Z" fill="#D2202B"/>
<path fill-rule="evenodd" clip-rule="evenodd" d="M26.8603 106.867H88.1285C92.0927 104.36 95.7304 101.386 98.9622 98.0276H16.0275C19.2592 101.386 22.8961 104.36 26.8603 106.867Z" fill="white"/>
<path fill-rule="evenodd" clip-rule="evenodd" d="M16.0274 98.0276H98.9622C101.557 95.3243 103.891 92.3684 105.922 89.1975H9.06812C11.0979 92.3684 13.4327 95.3243 16.0274 98.0276Z" fill="#D2202B"/>
<path fill-rule="evenodd" clip-rule="evenodd" d="M9.06815 89.1974H105.922C107.712 86.4006 109.264 83.4448 110.555 80.3486H4.4342C5.72598 83.4448 7.2778 86.4006 9.06815 89.1974Z" fill="white"/>
<path fill-rule="evenodd" clip-rule="evenodd" d="M4.43416 80.3486H110.555C111.75 77.4816 112.709 74.5222 113.423 71.4998H1.56531C2.2865 74.5491 3.24996 77.505 4.43416 80.3486Z" fill="#D2202B"/>
<path fill-rule="evenodd" clip-rule="evenodd" d="M1.56535 71.4998H113.423C114.102 68.6282 114.566 65.6817 114.797 62.6604H0.1922C0.423242 65.6817 0.88719 68.6282 1.56535 71.4998" fill="white"/>
<path fill-rule="evenodd" clip-rule="evenodd" d="M0.192219 62.6603H114.797C115.021 59.715 115.021 56.7569 114.797 53.8115H0.192219C0.0818429 55.2707 0.0247803 56.7486 0.0247803 58.2359C0.0247803 59.7232 0.0809075 61.2011 0.192219 62.6603" fill="#D2202B"/>
<path fill-rule="evenodd" clip-rule="evenodd" d="M0.1922 53.8115H114.797C114.567 50.7902 114.103 47.8437 113.425 44.9814H1.56441C0.88719 47.8437 0.422306 50.7902 0.1922 53.8115" fill="white"/>
<path fill-rule="evenodd" clip-rule="evenodd" d="M1.56439 44.9814H113.425C112.706 41.932 111.744 38.9762 110.561 36.1419H4.42857C3.23396 39.0052 2.27603 41.9616 1.56439 44.9814" fill="#D2202B"/>
<path fill-rule="evenodd" clip-rule="evenodd" d="M4.42859 36.1419H110.561C109.271 33.0458 107.722 30.0899 105.936 27.3025H9.05412C7.26751 30.0899 5.71756 33.0458 4.42859 36.1419Z" fill="white"/>
<path fill-rule="evenodd" clip-rule="evenodd" d="M9.05414 27.3025H105.936C103.902 24.1221 101.563 21.1569 98.9613 18.4442H16.0275C13.4271 21.1569 11.0877 24.1221 9.05414 27.3025Z" fill="#D2202B"/>
<path fill-rule="evenodd" clip-rule="evenodd" d="M16.0275 18.4442H98.9613C95.7352 15.0862 92.1039 12.121 88.1472 9.6142H26.8425C22.8858 12.121 19.2546 15.0862 16.0275 18.4442Z" fill="white"/>
<path fill-rule="evenodd" clip-rule="evenodd" d="M26.8425 9.6142H88.1473C79.2751 4.01117 68.765 0.765289 57.4944 0.765289C46.2248 0.765289 35.7138 4.01117 26.8425 9.6142Z" fill="#D2202B"/>
<path fill-rule="evenodd" clip-rule="evenodd" d="M0.192219 62.6603H48.9571V1.40146C21.2666 5.51719 0.0247803 29.3977 0.0247803 58.2359C0.0247803 59.7232 0.0809075 61.2011 0.192219 62.6603Z" fill="#2D3864"/>
<path fill-rule="evenodd" clip-rule="evenodd" d="M4.47073 36.0391H6.47621L4.49131 37.4795L5.23495 39.818L3.48857 38.5366C3.79631 37.6947 4.12464 36.8622 4.47073 36.0391V36.0391ZM3.26313 44.0367L4.018 46.3658H6.47621L4.49131 47.8156L5.23495 50.1448L3.26313 48.6949L1.27823 50.1448L2.02187 47.8156L1.09863 47.1422C1.14914 46.8803 1.19966 46.6277 1.25298 46.3658H2.49237L3.26313 44.0367V44.0367ZM12.1672 22.9061L12.5413 24.038L11.7378 23.4673C11.88 23.2803 12.0222 23.0932 12.1672 22.9061ZM10.5311 28.2659L11.301 30.5857H13.7554L11.7724 32.0356L12.5413 34.3834L10.5311 32.9242L8.55933 34.3834L9.30671 32.0356L7.32274 30.5857H9.77722L10.5311 28.2659ZM10.5311 38.5834L11.301 40.9218H13.7554L11.7724 42.3623L12.5413 44.7008L10.5311 43.2603L8.55933 44.7008L9.30671 42.3623L7.32274 40.9218H9.77722L10.5311 38.5834ZM10.5311 48.91L11.301 51.2672H13.7554L11.7724 52.6984L12.5413 55.0369L10.5311 53.587L8.55933 55.0369L9.30671 52.6984L7.32274 51.2672H9.77722L10.5311 48.91ZM19.2153 15.3762H20.9673L18.9712 16.8167L19.7289 19.1552L17.7327 17.7147L15.7497 19.1552L15.9611 18.5192C17.0022 17.4272 18.0878 16.3786 19.2153 15.3762V15.3762ZM17.7327 23.3645L18.4913 25.6936H20.9673L18.9712 27.1528L19.7289 29.4726L17.7327 28.0602L15.7497 29.4726L16.5195 27.1528L14.5243 25.6936H16.9872L17.7327 23.3645ZM17.7327 33.7006L18.4913 36.0391H20.9673L18.9712 37.4795L19.7289 39.818L17.7327 38.3775L15.7497 39.818L16.5195 37.4795L14.5243 36.0391H16.9872L17.7327 33.7006ZM17.7327 44.0367L18.4913 46.3658H20.9673L18.9712 47.8156L19.7289 50.1448L17.7327 48.6949L15.7497 50.1448L16.5195 47.8156L14.5243 46.3658H16.9872L17.7327 44.0367ZM26.3355 9.94159H28.2494L26.2663 11.382L27.0119 13.7205L25.0269 12.2801L23.0533 13.7205L23.6762 11.7656C24.5443 11.1389 25.431 10.5215 26.3355 9.94159V9.94159ZM25.0269 17.9205L25.793 20.259H28.2494L26.2663 21.6995L27.0119 24.038L25.0269 22.5974L23.0533 24.038L23.7988 21.6995L21.8139 20.259H24.2683L25.0269 17.9205V17.9205ZM25.0269 28.2659L25.793 30.5857H28.2494L26.2663 32.0356L27.0119 34.3834L25.0269 32.9242L23.0533 34.3834L23.7988 32.0356L21.8139 30.5857H24.2683L25.0269 28.2659V28.2659ZM25.0269 38.5834L25.793 40.9218H28.2494L26.2663 42.3623L27.0119 44.7008L25.0269 43.2603L23.0533 44.7008L23.7988 42.3623L21.8139 40.9218H24.2683L25.0269 38.5834V38.5834ZM25.0269 48.91L25.793 51.2672H28.2494L26.2663 52.6984L27.0119 55.0369L25.0269 53.587L23.0533 55.0369L23.7988 52.6984L21.8139 51.2672H24.2683L25.0269 48.91V48.91ZM32.2276 13.0377L32.9712 15.3762H35.4379L33.4651 16.8167L34.2003 19.1552L32.2276 17.7147L30.2221 19.1552L30.9873 16.8167L29.0173 15.3762H31.4578L32.2276 13.0377V13.0377ZM32.2276 23.3645L32.9712 25.6936H35.4379L33.4651 27.1528L34.2003 29.4726L32.2276 28.0602L30.2221 29.4726L30.9873 27.1528L29.0173 25.6936H31.4578L32.2276 23.3645V23.3645ZM32.2276 33.7006L32.9712 36.0391H35.4379L33.4651 37.4795L34.2003 39.818L32.2276 38.3775L30.2221 39.818L30.9873 37.4795L29.0173 36.0391H31.4578L32.2276 33.7006V33.7006ZM32.2276 44.0367L32.9712 46.3658H35.4379L33.4651 47.8156L34.2003 50.1448L32.2276 48.6949L30.2221 50.1448L30.9873 47.8156L29.0173 46.3658H31.4578L32.2276 44.0367V44.0367ZM39.4956 7.58438L40.2776 9.94159H42.7199L40.7369 11.382L41.5039 13.7205L39.4956 12.2801L37.5238 13.7205L38.2702 11.382L36.2863 9.94159H38.7407L39.4956 7.58438V7.58438ZM39.4956 17.9205L40.2776 20.259H42.7199L40.7369 21.6995L41.5039 24.038L39.4956 22.5974L37.5238 24.038L38.2702 21.6995L36.2863 20.259H38.7407L39.4956 17.9205V17.9205ZM39.4956 28.2659L40.2776 30.5857H42.7199L40.7369 32.0356L41.5039 34.3834L39.4956 32.9242L37.5238 34.3834L38.2702 32.0356L36.2863 30.5857H38.7407L39.4956 28.2659V28.2659ZM39.4956 38.5834L40.2776 40.9218H42.7199L40.7369 42.3623L41.5039 44.7008L39.4956 43.2603L37.5238 44.7008L38.2702 42.3623L36.2863 40.9218H38.7407L39.4956 38.5834V38.5834ZM39.4956 48.91L40.2776 51.2672H42.7199L40.7369 52.6984L41.5039 55.0369L39.4956 53.587L37.5238 55.0369L38.2702 52.6984L36.2863 51.2672H38.7407L39.4956 48.91" fill="white"/>
</svg>
